<svg height="661pt" viewBox="-21 -21 661 661.33219" width="661pt" xmlns="http://www.w3.org/2000/svg"><path d="m614.765625 430.519531c0-.238281-.199219-.410156-.25-.640625-6.339844-22.722656-17.964844-43.617187-33.917969-60.996094-.261718-.429687-.5625-.839843-.886718-1.21875-.152344-.144531-.351563-.183593-.515626-.308593-28.230468-30.203125-67.71875-47.347657-109.058593-47.347657-41.347657 0-80.835938 17.144532-109.066407 47.347657-.160156.125-.363281.164062-.507812.308593-.332031.378907-.628906.789063-.894531 1.21875-16.183594 17.636719-27.90625 38.894532-34.1875 62-.105469.316407-.335938.554688-.429688.898438-.085937.339844 0 .636719-.046875 1-10.050781 38.351562-4.40625 79.128906 15.6875 113.3125 20.09375 34.179688 52.972656 58.949219 91.375 68.824219.304688.167969.609375.316406.929688.449219.554687.121093 1.121094.195312 1.6875.21875 20.238281 5.136718 41.351562 5.796874 61.867187 1.933593.507813-.027343 1.011719-.097656 1.503907-.207031h.058593c41.105469-7.636719 77.125-32.164062 99.296875-67.605469 22.171875-35.445312 28.464844-78.5625 17.347656-118.871093-.011718-.105469.027344-.207032.007813-.316407zm-56.167969-55.507812c-49.757812 46.636719-127.171875 46.636719-176.929687 0 49.734375-46.6875 127.195312-46.6875 176.929687 0zm-218.453125 94.992187c.035157-7.714844.757813-15.40625 2.15625-22.996094 61.007813 20.316407 97.582031 82.621094 85.585938 145.792969-52.421875-18.054687-87.644531-67.347656-87.742188-122.796875zm107.359375 127.894532c14.015625-73.824219-28.804687-146.613282-100.144531-170.230469 4.746094-13.734375 11.761719-26.578125 20.75-37.996094 57.402344 53.742187 146.648437 53.742187 204.046875 0 8.398438 10.675781 15.074219 22.597656 19.78125 35.335937-76.765625 20.066407-124.527344 96.550782-108.863281 174.332032-11.863281 1.222656-23.839844.742187-35.570313-1.441406zm55.21875-2.199219c-13.726562-67.667969 27.953125-134.238281 94.824219-151.449219 13.695313 67.667969-27.972656 134.214844-94.824219 151.449219zm0 0"/><path d="m401.289062 283.136719c.472657.277343.964844.515625 1.476563.710937 9.351563 4.714844 19.175781 8.433594 29.300781 11.089844.304688.164062.609375.316406.929688.449219.554687.121093 1.121094.195312 1.6875.21875 20.238281 5.136719 41.351562 5.796875 61.867187 1.933593.507813-.027343 1.011719-.097656 1.503907-.210937h.058593c9.78125-1.855469 19.347657-4.679687 28.566407-8.441406h.140624c.078126 0 .136719-.085938.222657-.121094 56.265625-23.117187 93.027343-77.90625 93.085937-138.742187 0-3.179688-.285156-6.277344-.484375-9.40625 0-.171876 0-.339844 0-.507813v-.105469c-.644531-9.851562-2.269531-19.617187-4.859375-29.148437 0-.105469 0-.207031 0-.316407 0-.113281-.199218-.410156-.25-.640624-6.339844-22.722657-17.964844-43.621094-33.917968-60.996094-.261719-.429688-.5625-.839844-.886719-1.222656-.152344-.140626-.351563-.179688-.515625-.304688-6.65625-7.09375-13.996094-13.519531-21.90625-19.191406l-.105469-.148438c-.152344-.144531-.34375-.183594-.496094-.304687-51.792969-36.972657-121.355469-36.972657-173.148437 0-.152344.121093-.339844.160156-.488282.304687l-.09375.125c-7.902343 5.675782-15.242187 12.101563-21.90625 19.195313-.160156.125-.363281.164062-.507812.304687-.332031.382813-.628906.792969-.894531 1.222656-16.183594 17.636719-27.90625 38.894532-34.1875 61.992188-.105469.324219-.335938.5625-.429688.902344-.085937.339844 0 .640625-.046875 1.003906-17.722656 67.640625 14.015625 138.5 76.285156 170.316406zm26.597657-10.308594c-3.210938-1.105469-6.398438-2.269531-9.492188-3.605469 9.90625-57.078125-22.921875-112.945312-77.601562-132.0625.335937-3.425781.910156-6.785156 1.507812-10.121094 61.007813 20.3125 97.582031 82.621094 85.585938 145.789063zm-87.304688-114.199219c36.113281 16.085938 59.421875 51.859375 59.558594 91.390625 0 3-.253906 6-.523437 9.050781-34.429688-22.285156-56.320313-59.519531-59.035157-100.441406zm106.921875 119.289063c14.015625-73.824219-28.804687-146.613281-100.144531-170.230469 4.746094-13.734375 11.761719-26.582031 20.75-37.996094 27.710937 25.824219 64.148437 40.226563 102.027344 40.335938 37.859375-.101563 74.285156-14.503906 101.992187-40.304688 8.40625 10.660156 15.089844 22.574219 19.808594 35.304688-76.765625 20.066406-124.527344 96.550781-108.863281 174.328125-11.863281 1.226562-23.839844.742187-35.570313-1.4375zm-58.285156-229.457031c22.117188 20.199218 50.964844 31.453124 80.917969 31.566406 29.953125-.113282 58.792969-11.367188 80.914062-31.566406 2.609375 2.089843 5.101563 4.3125 7.546875 6.59375-24.023437 22.390624-55.621094 34.878906-88.460937 34.972656-32.851563-.097656-64.445313-12.597656-88.46875-34.996094 2.472656-2.257812 4.941406-4.480469 7.550781-6.570312zm209.835938 85.714843c-52.449219 14.03125-88.925782 61.554688-88.921876 115.84375.082032 7.640625.914063 15.25 2.464844 22.730469-3.234375 1.128906-6.527344 2.101562-9.875 3-13.726562-67.671875 27.953125-134.242188 94.824219-151.453125.648437 3.21875 1.101563 6.539063 1.507813 9.878906zm-67.753907 130.484375c-.753906-4.84375-1.144531-9.738281-1.167969-14.640625 0-43.554687 28.226563-82.085937 69.75-95.226562-1.6875 46.214843-27.804687 88.054687-68.582031 109.867187zm2.660157-227.75c-17.890626 14.984375-40.492188 23.171875-63.824219 23.121094-23.335938.050781-45.941407-8.136719-63.828125-23.121094 39.574218-22.503906 88.078125-22.503906 127.652344 0zm0 0"/><path d="m267.507812 376.863281c-.132812-.148437-.210937-.328125-.351562-.46875-6.925781-8.628906-14.769531-16.476562-23.398438-23.398437-.121093-.121094-.289062-.191406-.421874-.3125-54.488282-43.558594-131.878907-43.558594-186.367188 0-.128906.121094-.300781.191406-.421875.3125-8.621094 6.921875-16.46875 14.769531-23.398437 23.398437-.140626.140625-.21875.320313-.351563.46875-43.511719 54.472657-43.511719 131.816407 0 186.289063.132813.148437.210937.328125.351563.46875 6.929687 8.628906 14.777343 16.46875 23.398437 23.398437.121094.121094.292969.191407.421875.3125 54.488281 43.550781 131.878906 43.550781 186.367188 0 .132812-.121093.300781-.191406.421874-.3125 8.628907-6.929687 16.472657-14.769531 23.398438-23.398437.140625-.140625.21875-.320313.351562-.46875 43.515626-54.472656 43.515626-131.816406 0-186.289063zm-34.359374 193.136719h-165.941407c-6.1875-5.132812-11.894531-10.824219-17.046875-16.996094v-165.941406c5.152344-6.191406 10.855469-11.898438 17.046875-17.050781h165.941407c6.171874 5.140625 11.859374 10.828125 17 17v165.992187c-5.140626 6.171875-10.828126 11.859375-17 16.996094zm37-149.910156c13.328124 31.941406 13.328124 67.894531 0 99.835937zm-70.078126-70.078125h-99.835937c31.941406-13.328125 67.894531-13.328125 99.835937 0zm-169.910156 70.078125v99.835937c-13.332031-31.941406-13.332031-67.894531 0-99.835937zm70.074219 169.910156h99.835937c-31.941406 13.332031-67.894531 13.332031-99.835937 0zm0 0"/><path d="m296.140625 116.074219c-13.035156-55.5625-56.421875-98.953125-111.988281-111.988281-.121094 0-.257813 0-.382813-.101563-22.066406-5.226563-45.050781-5.226563-67.113281 0-.121094.050781-.257812.050781-.382812.101563-55.566407 13.035156-98.953126 56.425781-111.992188 111.988281-.058594.152343-.058594.3125-.117188.464843-5.207031 22.027344-5.207031 44.964844 0 66.992188.058594.152344.058594.3125.117188.460938 13.015625 55.566406 56.386719 98.96875 111.945312 112.023437.105469.050781.238282.050781.355469.101563 22.074219 5.226562 45.066407 5.226562 67.140625 0 .117188 0 .25 0 .355469-.101563 55.597656-13.011719 99.023437-56.402344 112.0625-111.988281.066406-.152344.066406-.3125.125-.464844 5.203125-22.027344 5.203125-44.964844 0-66.992188-.125-.183593-.125-.34375-.125-.496093zm-275.976563 33.949219c.046876-6.699219.617188-13.382813 1.699219-20h88.292969v40h-88.292969c-1.082031-6.613282-1.652343-13.296876-1.699219-20zm109.992188-20h39.996094v40h-39.996094zm59.996094 0h88.289062c1.082032 6.617187 1.652344 13.300781 1.707032 20-.054688 6.703124-.625 13.386718-1.707032 20h-88.289062zm83.632812-19.996094h-83.632812v-83.632813c39.632812 12.921875 70.707031 44 83.632812 83.632813zm-103.632812-88.292969v88.292969h-39.996094v-88.292969c6.609375-1.078125 13.292969-1.648437 20-1.703125 6.699219.054688 13.382812.625 19.996094 1.703125zm-59.996094 4.660156v83.632813h-83.636719c12.925781-39.632813 44-70.710938 83.636719-83.632813zm-83.636719 163.628907h83.636719v83.636718c-39.636719-12.925781-70.710938-44.003906-83.636719-83.636718zm103.636719 88.292968v-88.292968h39.996094v88.292968c-6.613282 1.078125-13.296875 1.652344-19.996094 1.699219-6.707031-.046875-13.390625-.621094-20-1.699219zm59.996094-4.65625v-83.636718h83.632812c-12.925781 39.632812-44 70.710937-83.632812 83.636718zm0 0"/><path d="m150.15625 390.011719c-44.183594 0-79.996094 35.816406-79.996094 79.992187 0 44.183594 35.8125 79.996094 79.996094 79.996094 44.175781 0 79.992188-35.8125 79.992188-79.996094-.050782-44.15625-35.835938-79.941406-79.992188-79.992187zm0 139.988281c-33.140625 0-59.996094-26.855469-59.996094-59.996094 0-33.132812 26.855469-59.996094 59.996094-59.996094 33.132812 0 59.996094 26.863282 59.996094 59.996094-.035156 33.125-26.878906 59.96875-59.996094 59.996094zm0 0"/><path d="m150.15625 420.007812c-27.617188 0-50 22.386719-50 49.996094 0 27.617188 22.382812 50 50 50 27.609375 0 49.996094-22.382812 49.996094-50-.035156-27.59375-22.402344-49.960937-49.996094-49.996094zm0 79.996094c-16.574219 0-30-13.425781-30-30 0-16.566406 13.425781-29.996094 30-29.996094 16.566406 0 29.996094 13.429688 29.996094 29.996094 0 16.574219-13.429688 30-29.996094 30zm0 0"/></svg>