<svg height="480pt" viewBox="-47 0 479 480" width="480pt" xmlns="http://www.w3.org/2000/svg"><path d="m104.5 176h176c4.417969 0 8-3.582031 8-8v-160c0-4.417969-3.582031-8-8-8h-48c-4.417969 0-8 3.582031-8 8v24h-120c-4.417969 0-8 3.582031-8 8v128c0 4.417969 3.582031 8 8 8zm136-160h32v16h-32zm-128 32h160v112h-160zm0 0"/><path d="m192.5 64c-22.089844 0-40 17.910156-40 40s17.910156 40 40 40 40-17.910156 40-40c-.027344-22.082031-17.917969-39.972656-40-40zm0 64c-13.253906 0-24-10.746094-24-24s10.746094-24 24-24 24 10.746094 24 24c-.015625 13.25-10.75 23.984375-24 24zm0 0"/><path d="m146.269531 308.867188c-1.09375 3.613281-1.6875 7.359374-1.769531 11.132812 0 16.070312 12.773438 28.480469 24.78125 36.59375-.429688.890625-.6875 1.851562-.761719 2.835938l-8 112c-.160156 2.214843.609375 4.398437 2.125 6.023437 1.511719 1.625 3.632813 2.546875 5.855469 2.546875h48c2.222656 0 4.34375-.921875 5.855469-2.546875 1.515625-1.625 2.285156-3.808594 2.125-6.023437l-8-112c-.074219-.984376-.332031-1.949219-.761719-2.839844 12.007812-8.109375 24.78125-20.519532 24.78125-36.589844-.054688-2.785156-.410156-5.558594-1.070312-8.265625-5.96875-26.789063-39.363282-67.144531-40.78125-68.851563-1.519532-1.828124-3.773438-2.882812-6.148438-2.882812s-4.628906 1.054688-6.148438 2.882812c-1.328124 1.59375-32.59375 39.359376-40.082031 65.976563zm30.824219 155.132812 6.855469-96h17.101562l6.855469 96zm15.398438-112.71875c-9.199219-4.234375-26.097657-14.074219-30.765626-25.441406l.160157.046875c1.550781.585937 3.148437 1.042969 4.773437 1.371093.386719.078126.789063.140626 1.191406.210938 1.96875.34375 3.964844.523438 5.964844.53125 8.972656.039062 17.578125-3.539062 23.878906-9.925781 3.417969-3.847657 8.3125-6.058594 13.460938-6.074219 1.398438-.011719 2.792969.132812 4.160156.429688.421875.097656.761719.285156 1.152344.410156.742188.210937 1.46875.476562 2.167969.800781.441406.226563.851562.539063 1.277343.804687.554688.351563 1.117188.667969 1.664063 1.085938.539063.40625 1.101563.890625 1.660156 1.355469.351563.292969.695313.5625 1.0625.878906.121094.738281.1875 1.484375.199219 2.234375 0 13.679688-21.261719 26.3125-32.007812 31.28125zm.019531-90.410156c8.707031 11.214844 16.570312 23.058594 23.519531 35.4375-.078125-.011719-.175781-.007813-.257812-.015625-1.53125-.195313-3.074219-.292969-4.617188-.292969-8.96875-.039062-17.574219 3.539062-23.875 9.925781-3.417969 3.847657-8.316406 6.058594-13.464844 6.074219-1.285156 0-2.566406-.132812-3.820312-.394531-.347656-.074219-.667969-.171875-.992188-.265625-.769531-.210938-1.515625-.488282-2.238281-.824219-.28125-.136719-.574219-.261719-.851563-.414063-.871093-.484374-1.707031-1.03125-2.503906-1.636718l-.125-.085938-.003906-.003906c7.71875-16.996094 17.539062-32.953125 29.230469-47.503906zm0 0"/><path d="m12.945312 329.515625c7.488282 5.863281 17.28125 7.898437 26.484376 5.5l22.953124-5.941406c10.757813-2.882813 18.210938-12.675781 18.117188-23.8125v-153.261719c0-2.464844-1.136719-4.789062-3.078125-6.304688-1.941406-1.515624-4.472656-2.054687-6.863281-1.457031l-32 8c-3.5625.890625-6.058594 4.089844-6.058594 7.761719v110.59375l-8.371094 2.164062c-11.757812 3.316407-20.65625 12.957032-23.015625 24.945313-2.363281 11.988281 2.210938 24.285156 11.832031 31.8125zm15.191407-41.265625 14.367187-3.71875c3.53125-.914062 5.996094-4.097656 5.996094-7.746094v-110.539062l16-4v143.015625c.089844 3.84375-2.425781 7.265625-6.125 8.320312l-22.953125 5.941407c-4.410156 1.136718-9.097656.15625-12.679687-2.65625-3.992188-3.117188-6.296876-7.921876-6.242188-12.984376-.136719-7.253906 4.648438-13.683593 11.636719-15.632812zm0 0"/><path d="m305.054688 298.75c.066406.175781.105468.355469.183593.527344.042969.097656.058594.203125.105469.300781l24 48c1.355469 2.710937 4.125 4.421875 7.15625 4.421875s5.800781-1.710938 7.15625-4.421875l24-48c.046875-.097656.0625-.203125.105469-.300781.078125-.171875.117187-.351563.183593-.527344.261719-.898438.445313-1.820312.554688-2.75v-152c-.007812-8.832031-7.167969-15.992188-16-16h-32c-8.832031.007812-15.992188 7.167969-16 16v152c.109375.929688.292969 1.851562.554688 2.75zm15.445312-90.75h32v80h-32zm32-16h-32v-16h32zm-16 134.113281-11.054688-22.113281h22.109376zm-16-182.113281h32v16h-32zm0 0"/><path d="m184.5 192h16v32h-16zm0 0"/><path d="m100.921875 287.15625 7.15625-14.3125 32 16-7.15625 14.3125zm0 0"/><path d="m244.921875 288.84375 32-16 7.15625 14.3125-32 16zm0 0"/><path d="m240.5 64h16v16h-16zm0 0"/><path d="m128.5 64h16v80h-16zm0 0"/><path d="m8.5 96c13.25.015625 23.984375 10.75 24 24 0 4.417969 3.582031 8 8 8s8-3.582031 8-8c.015625-13.25 10.75-23.984375 24-24 4.417969 0 8-3.582031 8-8s-3.582031-8-8-8c-13.25-.015625-23.984375-10.75-24-24 0-4.417969-3.582031-8-8-8s-8 3.582031-8 8c-.015625 13.25-10.75 23.984375-24 24-4.417969 0-8 3.582031-8 8s3.582031 8 8 8zm32-16.246094c2.332031 3.132813 5.113281 5.914063 8.246094 8.246094-3.132813 2.332031-5.914063 5.113281-8.246094 8.246094-2.332031-3.132813-5.113281-5.914063-8.246094-8.246094 3.132813-2.332031 5.914063-5.113281 8.246094-8.246094zm0 0"/><path d="m312.5 48c13.25.015625 23.984375 10.75 24 24 0 4.417969 3.582031 8 8 8s8-3.582031 8-8c.015625-13.25 10.75-23.984375 24-24 4.417969 0 8-3.582031 8-8s-3.582031-8-8-8c-13.25-.015625-23.984375-10.75-24-24 0-4.417969-3.582031-8-8-8s-8 3.582031-8 8c-.015625 13.25-10.75 23.984375-24 24-4.417969 0-8 3.582031-8 8s3.582031 8 8 8zm32-16.246094c2.332031 3.132813 5.113281 5.914063 8.246094 8.246094-3.132813 2.332031-5.914063 5.113281-8.246094 8.246094-2.332031-3.132813-5.113281-5.914063-8.246094-8.246094 3.132813-2.332031 5.914063-5.113281 8.246094-8.246094zm0 0"/><path d="m64.5 392c0 4.417969 3.582031 8 8 8 13.25.015625 23.984375 10.75 24 24 0 4.417969 3.582031 8 8 8s8-3.582031 8-8c.015625-13.25 10.75-23.984375 24-24 4.417969 0 8-3.582031 8-8s-3.582031-8-8-8c-13.25-.015625-23.984375-10.75-24-24 0-4.417969-3.582031-8-8-8s-8 3.582031-8 8c-.015625 13.25-10.75 23.984375-24 24-4.417969 0-8 3.582031-8 8zm40-8.246094c2.332031 3.132813 5.113281 5.914063 8.246094 8.246094-3.132813 2.332031-5.914063 5.113281-8.246094 8.246094-2.332031-3.132813-5.113281-5.914063-8.246094-8.246094 3.132813-2.332031 5.914063-5.113281 8.246094-8.246094zm0 0"/></svg>